<svg xmlns="http://www.w3.org/2000/svg" width="41.908" height="31.282" viewBox="0 0 41.908 31.282">
  <path id="Icon_material-folder-shared" data-name="Icon material-folder-shared" d="M40.717,9.91H23.954L19.763,6H7.191a4.051,4.051,0,0,0-4.17,3.91L3,33.371a4.07,4.07,0,0,0,4.191,3.91H40.717a4.07,4.07,0,0,0,4.191-3.91V13.82A4.07,4.07,0,0,0,40.717,9.91ZM30.24,15.775a4.07,4.07,0,0,1,4.191,3.91,4.2,4.2,0,0,1-8.382,0A4.07,4.07,0,0,1,30.24,15.775Zm8.382,15.641H21.858V29.461c0-2.6,5.595-3.91,8.382-3.91s8.382,1.31,8.382,3.91Z" transform="translate(-3 -6)" fill="#989ca2"/>
</svg>
