<svg xmlns="http://www.w3.org/2000/svg" width="26.405" height="29.337" viewBox="0 0 26.405 29.337">
  <defs>
    <style>
      .cls-1 {
        fill: #88b13b;
      }
    </style>
  </defs>
  <path id="Icon_awesome-calendar-alt" data-name="Icon awesome-calendar-alt" class="cls-1" d="M0,26.586a2.791,2.791,0,0,0,2.829,2.75H23.576a2.791,2.791,0,0,0,2.829-2.75V11H0Zm18.861-11.23a.7.7,0,0,1,.707-.688h2.358a.7.7,0,0,1,.707.688v2.292a.7.7,0,0,1-.707.688H19.568a.7.7,0,0,1-.707-.688Zm0,7.334A.7.7,0,0,1,19.568,22h2.358a.7.7,0,0,1,.707.688v2.292a.7.7,0,0,1-.707.688H19.568a.7.7,0,0,1-.707-.688Zm-7.544-7.334a.7.7,0,0,1,.707-.688h2.358a.7.7,0,0,1,.707.688v2.292a.7.7,0,0,1-.707.688H12.024a.7.7,0,0,1-.707-.688Zm0,7.334A.7.7,0,0,1,12.024,22h2.358a.7.7,0,0,1,.707.688v2.292a.7.7,0,0,1-.707.688H12.024a.7.7,0,0,1-.707-.688ZM3.772,15.356a.7.7,0,0,1,.707-.688H6.837a.7.7,0,0,1,.707.688v2.292a.7.7,0,0,1-.707.688H4.479a.7.7,0,0,1-.707-.688Zm0,7.334A.7.7,0,0,1,4.479,22H6.837a.7.7,0,0,1,.707.688v2.292a.7.7,0,0,1-.707.688H4.479a.7.7,0,0,1-.707-.688Zm19.8-19.023H20.747V.917A.933.933,0,0,0,19.8,0H17.918a.933.933,0,0,0-.943.917v2.75H9.43V.917A.933.933,0,0,0,8.487,0H6.6a.933.933,0,0,0-.943.917v2.75H2.829A2.791,2.791,0,0,0,0,6.417v2.75H26.4V6.417A2.791,2.791,0,0,0,23.576,3.667Z"/>
</svg>
