<svg xmlns="http://www.w3.org/2000/svg" width="214.145" height="198.576" viewBox="0 0 214.145 198.576">
  <defs>
    <style>
      .cls-1 {
        opacity: 0.57;
      }

      .cls-2 {
        fill: #f2f2f2;
      }

      .cls-3 {
        fill: #fff;
      }

      .cls-4 {
        fill: #e6e6e6;
      }

      .cls-5 {
        fill: #707070;
      }

      .cls-6 {
        fill: #2f2e41;
      }

      .cls-7 {
        fill: #b5b2b2;
      }

      .cls-8 {
        fill: #3f3d56;
      }
    </style>
  </defs>
  <g id="Grupo_13" data-name="Grupo 13" class="cls-1" transform="translate(-0.003 -0.003)">
    <path id="Trazado_43" data-name="Trazado 43" class="cls-2" d="M324.023,99.745l-6.553,3.551-80.733,43.751-6.553,3.551a13.546,13.546,0,0,0-5.453,18.423l60.12,109.44a13.734,13.734,0,0,0,18.548,5.416l.017-.009,93.8-50.835.017-.009a13.546,13.546,0,0,0,5.453-18.422L342.571,105.16A13.734,13.734,0,0,0,324.023,99.745Z" transform="translate(-223.063 -98.086)"/>
    <path id="Trazado_44" data-name="Trazado 44" class="cls-3" d="M335.825,113.119l-7.761,4.206-78.316,42.441-7.761,4.206a9.646,9.646,0,0,0-3.883,13.119l60.119,109.439a9.78,9.78,0,0,0,13.208,3.857l.017-.009,93.8-50.835.017-.009a9.646,9.646,0,0,0,3.883-13.119l-60.119-109.44a9.78,9.78,0,0,0-13.209-3.857Z" transform="translate(-232.979 -108.029)"/>
    <path id="Trazado_45" data-name="Trazado 45" class="cls-2" d="M493,225.717l-34.986,18.96a2.285,2.285,0,0,1-3.089-.9,2.253,2.253,0,0,1,.908-3.068l34.986-18.96a2.284,2.284,0,0,1,3.089.9,2.253,2.253,0,0,1-.908,3.068Z" transform="translate(-388.864 -186.657)"/>
    <path id="Trazado_46" data-name="Trazado 46" class="cls-2" d="M514.2,233.626l-43.229,23.427a2.285,2.285,0,0,1-3.089-.9,2.253,2.253,0,0,1,.908-3.068l43.229-23.427a2.285,2.285,0,0,1,3.089.9,2.253,2.253,0,0,1-.908,3.068Z" transform="translate(-398.139 -192.335)"/>
    <path id="Trazado_47" data-name="Trazado 47" class="cls-2" d="M333.146,275.411l-32.255,17.48a1.08,1.08,0,0,0-.435,1.47l13.735,25a1.1,1.1,0,0,0,1.48.432l32.255-17.48a1.08,1.08,0,0,0,.435-1.47l-13.735-25a1.1,1.1,0,0,0-1.48-.432Z" transform="translate(-278.374 -225.284)"/>
    <path id="Trazado_48" data-name="Trazado 48" class="cls-2" d="M522.689,338.159l-47.453,25.716a2.285,2.285,0,0,1-3.089-.9,2.253,2.253,0,0,1,.908-3.068l47.453-25.716a2.284,2.284,0,0,1,3.089.9,2.253,2.253,0,0,1-.908,3.068Z" transform="translate(-401.191 -267.375)"/>
    <path id="Trazado_49" data-name="Trazado 49" class="cls-2" d="M543.888,346.068l-55.7,30.184a2.284,2.284,0,0,1-3.089-.9,2.253,2.253,0,0,1,.908-3.068l55.7-30.184a2.285,2.285,0,0,1,3.089.9,2.253,2.253,0,0,1-.908,3.068Z" transform="translate(-410.466 -273.052)"/>
    <ellipse id="Elipse_3" data-name="Elipse 3" class="cls-2" cx="9.658" cy="9.593" rx="9.658" ry="9.593" transform="translate(46.315 98.376)"/>
    <path id="Trazado_50" data-name="Trazado 50" class="cls-4" d="M624.937,263.788h-106.9a13.64,13.64,0,0,0-13.67,13.578v124.67a13.64,13.64,0,0,0,13.67,13.578h106.9a13.64,13.64,0,0,0,13.67-13.578V277.366a13.64,13.64,0,0,0-13.67-13.578Z" transform="translate(-424.459 -217.035)"/>
    <path id="Trazado_51" data-name="Trazado 51" class="cls-3" d="M634.856,277.642h-106.9a9.713,9.713,0,0,0-9.735,9.669v124.67a9.713,9.713,0,0,0,9.735,9.669h106.9a9.713,9.713,0,0,0,9.735-9.669V287.311A9.713,9.713,0,0,0,634.856,277.642Z" transform="translate(-434.377 -226.98)"/>
    <path id="Trazado_52" data-name="Trazado 52" class="cls-5" d="M768.958,374.011H729.1a2.261,2.261,0,1,1,0-4.522h39.854a2.261,2.261,0,1,1,0,4.522Z" transform="translate(-583.725 -292.914)"/>
    <path id="Trazado_53" data-name="Trazado 53" class="cls-5" d="M778.348,401.059H729.1a2.261,2.261,0,1,1,0-4.522h49.245a2.261,2.261,0,1,1,0,4.522Z" transform="translate(-583.725 -312.33)"/>
    <path id="Trazado_54" data-name="Trazado 54" class="cls-4" d="M608.436,336.711H571.693a1.087,1.087,0,0,0-1.091,1.083v28.482a1.087,1.087,0,0,0,1.091,1.083h36.743a1.087,1.087,0,0,0,1.091-1.083V337.794a1.087,1.087,0,0,0-1.091-1.083Z" transform="translate(-471.878 -269.384)"/>
    <path id="Trazado_55" data-name="Trazado 55" class="cls-6" d="M577.826,397.662a9.58,9.58,0,0,1-2.5,6.511,7.052,7.052,0,0,1-6.412,2.432,4.526,4.526,0,0,1-3.8-4.706,3.481,3.481,0,0,1,1.437-2.565,3.529,3.529,0,0,1,2.9-.566,2.951,2.951,0,0,1,1.193,4.985c-.422.34-1.029-.255-.6-.6a2.107,2.107,0,0,0-.6-3.5A2.673,2.673,0,0,0,565.953,402a3.711,3.711,0,0,0,3.239,3.8,6.155,6.155,0,0,0,5.374-2.059,8.7,8.7,0,0,0,2.407-6.078.426.426,0,0,1,.852,0Z" transform="translate(-467.932 -312.845)"/>
    <ellipse id="Elipse_4" data-name="Elipse 4" class="cls-7" cx="15.203" cy="15.1" rx="15.203" ry="15.1" transform="translate(103.013 59.998)"/>
    <path id="Trazado_56" data-name="Trazado 56" class="cls-6" d="M636.44,362.648l-.016-.564a4.725,4.725,0,0,0,2.689-.6,1.731,1.731,0,0,0,.676-1.278.988.988,0,0,0-.327-.817,1.731,1.731,0,0,0-1.758-.015l-.47.214.9-6.543.563.077-.767,5.566a2.017,2.017,0,0,1,1.9.271,1.539,1.539,0,0,1,.528,1.267,2.29,2.29,0,0,1-.909,1.714A5.258,5.258,0,0,1,636.44,362.648Z" transform="translate(-519.002 -281.107)"/>
    <rect id="Rect치ngulo_36" data-name="Rect치ngulo 36" class="cls-6" width="3.06" height="0.564" transform="translate(122.48 72.492)"/>
    <rect id="Rect치ngulo_37" data-name="Rect치ngulo 37" class="cls-6" width="3.06" height="0.564" transform="translate(112.822 72.492)"/>
    <path id="Trazado_57" data-name="Trazado 57" class="cls-6" d="M609.572,432.943a15.106,15.106,0,0,1,3.662-1.673,2.4,2.4,0,0,1,.006-1.329,2.676,2.676,0,0,1,2.594-1.871h3.7a2.685,2.685,0,0,1,2.6,1.873,2.39,2.39,0,0,1,.005,1.326,15.151,15.151,0,0,1,3.662,1.673Z" transform="translate(-499.778 -334.967)"/>
    <path id="Trazado_58" data-name="Trazado 58" class="cls-8" d="M686.647,341.649a3.283,3.283,0,0,0-1-.81,2.39,2.39,0,0,0-1.094-.268,2.5,2.5,0,0,0-1.452.485,5.635,5.635,0,0,0-1.957,4.593c0,2.545,1.261,4.655,2.9,5.022a2.356,2.356,0,0,0,.508.056c1.878,0,3.409-2.277,3.409-5.078A6.21,6.21,0,0,0,686.647,341.649Z" transform="translate(-551.018 -272.155)"/>
    <path id="Trazado_59" data-name="Trazado 59" class="cls-8" d="M578.818,340.935h0a2.45,2.45,0,0,0-1.264-.364,2.39,2.39,0,0,0-1.094.268,3.282,3.282,0,0,0-1,.81l0,0a6.222,6.222,0,0,0-1.309,4c0,2.189.932,4.057,2.238,4.771a2.44,2.44,0,0,0,1.17.308,2.206,2.206,0,0,0,.272-.017h0c1.75-.209,3.133-2.4,3.133-5.062A5.487,5.487,0,0,0,578.818,340.935Z" transform="translate(-474.412 -272.155)"/>
    <path id="Trazado_60" data-name="Trazado 60" class="cls-8" d="M579.453,314.8a.427.427,0,0,0,.346-.177.421.421,0,0,0,.058-.382,16.437,16.437,0,0,1,5.424-18.191,16.709,16.709,0,0,1,19.069-1.105,16.459,16.459,0,0,1,7.517,17.442.426.426,0,0,0,.834.175,17.3,17.3,0,0,0-7.9-18.339,17.566,17.566,0,0,0-20.049,1.162,17.281,17.281,0,0,0-5.7,19.127A.426.426,0,0,0,579.453,314.8Z" transform="translate(-477.272 -237.018)"/>
    <path id="Trazado_61" data-name="Trazado 61" class="cls-6" d="M632.786,329.112a2.105,2.105,0,0,1-.329,2.62,3.584,3.584,0,0,1-3.284.8c-1.282-.191-2.643-.787-3.941-.385-1.107.343-1.9,1.34-3.045,1.59a2.117,2.117,0,0,1-2.6-1.151c-.172-.519.651-.741.822-.225.231.7,1.23.684,1.8.491.917-.31,1.623-1.064,2.524-1.424a5.559,5.559,0,0,1,3.3.009,5.385,5.385,0,0,0,3.208.14c.751-.315,1.349-1.308.809-2.04C631.726,329.1,632.465,328.676,632.786,329.112Z" transform="translate(-506.934 -263.797)"/>
    <path id="Trazado_62" data-name="Trazado 62" class="cls-4" d="M732.95,501.986H678.892a2.261,2.261,0,1,1,0-4.522H732.95a2.261,2.261,0,1,1,0,4.522Z" transform="translate(-547.777 -384.782)"/>
    <path id="Trazado_63" data-name="Trazado 63" class="cls-4" d="M742.34,529.033H678.892a2.261,2.261,0,1,1,0-4.522H742.34a2.261,2.261,0,1,1,0,4.522Z" transform="translate(-547.777 -404.198)"/>
    <path id="Trazado_64" data-name="Trazado 64" class="cls-4" d="M732.95,599.2H678.892a2.261,2.261,0,1,1,0-4.522H732.95a2.261,2.261,0,1,1,0,4.522Z" transform="translate(-547.777 -454.568)"/>
    <path id="Trazado_65" data-name="Trazado 65" class="cls-4" d="M742.34,626.247H678.892a2.261,2.261,0,1,1,0-4.522H742.34a2.261,2.261,0,1,1,0,4.522Z" transform="translate(-547.777 -473.984)"/>
    <ellipse id="Elipse_5" data-name="Elipse 5" class="cls-4" cx="9.658" cy="9.593" rx="9.658" ry="9.593" transform="translate(100.062 109.081)"/>
    <ellipse id="Elipse_6" data-name="Elipse 6" class="cls-4" cx="9.658" cy="9.593" rx="9.658" ry="9.593" transform="translate(100.062 136.73)"/>
    <path id="Trazado_66" data-name="Trazado 66" class="cls-4" d="M732.95,697.2H678.892a2.261,2.261,0,1,1,0-4.522H732.95a2.261,2.261,0,1,1,0,4.522Z" transform="translate(-547.777 -524.918)"/>
    <path id="Trazado_67" data-name="Trazado 67" class="cls-4" d="M742.34,724.247H678.892a2.261,2.261,0,1,1,0-4.522H742.34a2.261,2.261,0,1,1,0,4.522Z" transform="translate(-547.777 -544.335)"/>
    <ellipse id="Elipse_7" data-name="Elipse 7" class="cls-4" cx="9.658" cy="9.593" rx="9.658" ry="9.593" transform="translate(100.062 164.38)"/>
  </g>
</svg>
