<svg xmlns="http://www.w3.org/2000/svg" width="33.764" height="27.296" viewBox="0 0 33.764 27.296">
  <defs>
    <style>
      .cls-1 {
        fill: #303974;
      }
    </style>
  </defs>
  <path id="Icon_material-folder-shared" data-name="Icon material-folder-shared" class="cls-1" d="M33.387,9.412H19.882L16.505,6H6.376A3.39,3.39,0,0,0,3.017,9.412L3,29.884A3.4,3.4,0,0,0,6.376,33.3H33.387a3.4,3.4,0,0,0,3.376-3.412V12.824A3.4,3.4,0,0,0,33.387,9.412ZM24.946,14.53a3.412,3.412,0,1,1-3.376,3.412A3.4,3.4,0,0,1,24.946,14.53ZM31.7,28.178H18.194V26.472c0-2.269,4.507-3.412,6.753-3.412S31.7,24.2,31.7,26.472Z" transform="translate(-3 -6)"/>
</svg>
