<svg xmlns="http://www.w3.org/2000/svg" width="22.903" height="23.723" viewBox="0 0 22.903 23.723">
  <defs>
    <style>
      .cls-1 {
        fill: #fff;
      }
    </style>
  </defs>
  <path id="Icon_open-magnifying-glass" data-name="Icon open-magnifying-glass" class="cls-1" d="M9.93-.016A10.124,10.124,0,0,0,0,10.27,10.124,10.124,0,0,0,9.93,20.556a9.545,9.545,0,0,0,4.71-1.2,2.89,2.89,0,0,0,.369.382l2.837,2.939a2.833,2.833,0,0,0,2.857.919A2.948,2.948,0,0,0,22.819,21.4a3.064,3.064,0,0,0-.887-2.959L19.094,15.5a2.859,2.859,0,0,0-.454-.382,10.43,10.43,0,0,0,1.248-4.878A10.124,10.124,0,0,0,9.959-.045Zm0,2.939a7.189,7.189,0,0,1,7.093,7.347,7.519,7.519,0,0,1-1.873,5.055l-.085.088a2.89,2.89,0,0,0-.369.382A6.96,6.96,0,0,1,9.9,17.646,7.189,7.189,0,0,1,2.809,10.3,7.189,7.189,0,0,1,9.9,2.953Z" transform="translate(0 0.045)"/>
</svg>
