<svg xmlns="http://www.w3.org/2000/svg" width="33.198" height="33" viewBox="0 0 33.198 33">
  <defs>
    <style>
      .cls-1 {
        fill: #5a5a5a;
      }
    </style>
  </defs>
  <g id="Grupo_75" data-name="Grupo 75" transform="translate(-1623 -507)">
    <path id="Icon_material-phone-android" data-name="Icon material-phone-android" class="cls-1" d="M24,1.5H12A4.494,4.494,0,0,0,7.5,6V30A4.494,4.494,0,0,0,12,34.5H24A4.494,4.494,0,0,0,28.5,30V6A4.494,4.494,0,0,0,24,1.5Zm-3,30H15V30h6ZM25.875,27H10.125V6h15.75Z" transform="translate(1615.5 505.5)"/>
    <path id="Icon_awesome-tools" data-name="Icon awesome-tools" class="cls-1" d="M11.935,12.751,9.146,8.977A1.443,1.443,0,0,0,7.111,8.53L4.572,5.095v-2L1.522,0,0,2.062,2.285,6.187H3.764L6.3,9.622a3.056,3.056,0,0,0,.331,2.752l2.79,3.773a.735.735,0,0,0,1.255,0l1.255-1.7a1.521,1.521,0,0,0,0-1.7ZM7.9,7.25a2.234,2.234,0,0,1,1.784,1l.462.625a3.52,3.52,0,0,0,1.043-.951,5.805,5.805,0,0,0,.9-4.4c-.052-.29-.322-.39-.479-.177l-1.772,2.4L8.224,5.375,7.954,3.187,9.727.789A.446.446,0,0,0,9.591.139,2.87,2.87,0,0,0,6.337,1.36,5.526,5.526,0,0,0,5.355,4.7L7.311,7.344A1.956,1.956,0,0,1,7.9,7.25ZM5.424,9.893,4.074,8.066.443,12.98a2.6,2.6,0,0,0,0,2.916,1.264,1.264,0,0,0,2.156,0l2.944-3.983a4.614,4.614,0,0,1-.119-2.02Zm-3.9,5.317c-.314,0-.572-.348-.572-.773s.255-.773.572-.773.572.345.572.773S1.839,15.209,1.522,15.209Z" transform="translate(1644.004 507)"/>
  </g>
</svg>
