<svg xmlns="http://www.w3.org/2000/svg" width="27.473" height="25.704" viewBox="0 0 27.473 25.704">
  <defs>
    <style>
      .cls-1 {
        fill: #0a2d74;
      }
    </style>
  </defs>
  <g id="Grupo_67" data-name="Grupo 67" transform="translate(-666.742 -853)">
    <path id="Trazado_78" data-name="Trazado 78" class="cls-1" d="M23.522,16.1H18.6V11.5a1.059,1.059,0,0,0-2.113,0v4.6h-4.92a.982.982,0,0,0-1.057.989.993.993,0,0,0,1.057.989h4.92v4.6a.993.993,0,0,0,1.057.989,1.019,1.019,0,0,0,1.057-.989v-4.6h4.92a.991.991,0,1,0,0-1.977Z" transform="translate(662.934 848.76)"/>
    <path id="Trazado_79" data-name="Trazado 79" class="cls-1" d="M17.111,5.105a12.233,12.233,0,0,1,8.407,3.256,10.629,10.629,0,0,1,0,15.731,12.233,12.233,0,0,1-8.407,3.256A12.233,12.233,0,0,1,8.7,24.093a10.629,10.629,0,0,1,0-15.731,12.233,12.233,0,0,1,8.407-3.256m0-1.73c-7.588,0-13.736,5.753-13.736,12.852S9.523,29.079,17.111,29.079s13.736-5.753,13.736-12.852S24.7,3.375,17.111,3.375Z" transform="translate(663.367 849.625)"/>
  </g>
</svg>
