<svg xmlns="http://www.w3.org/2000/svg" width="190.493" height="200.482" viewBox="0 0 190.493 200.482">
  <defs>
    <style>
      .cls-1 {
        opacity: 0.4;
        isolation: isolate;
      }

      .cls-2 {
        fill: #fff;
      }

      .cls-3 {
        fill: #3f3d56;
      }

      .cls-4 {
        fill: #c8c8d4;
      }

      .cls-5 {
        fill: #2f2e41;
      }

      .cls-6 {
        fill: #828199;
      }

      .cls-7 {
        fill: #ccc;
      }

      .cls-8 {
        fill: #656474;
      }
    </style>
  </defs>
  <g id="Grupo_11" data-name="Grupo 11" class="cls-1" transform="translate(-119.639 -114.055)">
    <ellipse id="Elipse_1" data-name="Elipse 1" class="cls-2" cx="19.816" cy="18.136" rx="19.816" ry="18.136" transform="translate(124.725 158.235)"/>
    <rect id="Rectángulo_33" data-name="Rectángulo 33" class="cls-3" width="160.523" height="1.016" transform="translate(149.609 313.521)"/>
    <path id="Trazado_29" data-name="Trazado 29" class="cls-4" d="M627.491,585.278a2.878,2.878,0,0,1-.312-.571l-2.558-6.269a2.884,2.884,0,0,1,1.89-3.792l57.09-19.51a3.318,3.318,0,0,1,4.143,1.73l2.558,6.269a2.881,2.881,0,0,1-1.89,3.792l-57.089,19.51a3.386,3.386,0,0,1-3.831-1.159Z" transform="translate(-467.991 -357.726)"/>
    <path id="Trazado_30" data-name="Trazado 30" class="cls-5" d="M717.714,551.581,694.5,560.053a2.7,2.7,0,0,0-2.028,3.264l2.694,9.873a2.789,2.789,0,0,0,1.609,1.8,3.222,3.222,0,0,0,2.54,0l23.28-10.028a2.664,2.664,0,0,0,1.746-3.5l-2.8-8.286A3.065,3.065,0,0,0,717.714,551.581Z" transform="translate(-502.286 -355.79)"/>
    <path id="Trazado_31" data-name="Trazado 31" class="cls-6" d="M805.38,614.17a3.251,3.251,0,0,1-3.414-1.968l-19.872-52.724a2.893,2.893,0,0,1,1.994-3.747L791,553.548a3.3,3.3,0,0,1,4.094,1.825L814.966,608.1a2.9,2.9,0,0,1-1.994,3.747l-6.912,2.182A3.506,3.506,0,0,1,805.38,614.17Z" transform="translate(-547.466 -356.871)"/>
    <path id="Trazado_32" data-name="Trazado 32" class="cls-5" d="M796.686,553.566l7.627,21.783a2.63,2.63,0,0,1-1.462,3.509l-10.037,4.378a3.223,3.223,0,0,1-2.54.008,2.792,2.792,0,0,1-1.619-1.791L782.3,558.634a2.675,2.675,0,0,1,1.839-3.459l8.765-3.3A3.053,3.053,0,0,1,796.686,553.566Z" transform="translate(-547.578 -355.966)"/>
    <path id="Trazado_33" data-name="Trazado 33" class="cls-5" d="M754.163,737.767h-7.312a3.1,3.1,0,0,1-3.22-2.947V679.046a3.1,3.1,0,0,1,3.22-2.947h7.312a3.1,3.1,0,0,1,3.22,2.947V734.82A3.1,3.1,0,0,1,754.163,737.767Z" transform="translate(-528.147 -423.947)"/>
    <path id="Trazado_34" data-name="Trazado 34" class="cls-5" d="M783.355,737.767h-7.312a3.1,3.1,0,0,1-3.22-2.947V679.046a3.1,3.1,0,0,1,3.22-2.947h7.312a3.1,3.1,0,0,1,3.22,2.947V734.82A3.1,3.1,0,0,1,783.355,737.767Z" transform="translate(-542.878 -423.947)"/>
    <path id="Trazado_35" data-name="Trazado 35" class="cls-7" d="M768.874,611.53H735.652a3.334,3.334,0,0,1-3.468-3.174V558.962c0-10.149,8.99-18.376,20.079-18.376s20.079,8.227,20.079,18.376v49.395a3.334,3.334,0,0,1-3.468,3.174Z" transform="translate(-522.371 -349.874)"/>
    <path id="Trazado_36" data-name="Trazado 36" class="cls-5" d="M799.184,618.677H782.341V531.556l.313.078c9.75,2.449,16.514,10.554,16.53,19.807Z" transform="translate(-547.681 -344.938)"/>
    <path id="Trazado_37" data-name="Trazado 37" class="cls-5" d="M743.169,618.677H726.326V551.442c.017-9.253,6.781-17.358,16.53-19.807l.313-.078Z" transform="translate(-519.415 -344.938)"/>
    <ellipse id="Elipse_2" data-name="Elipse 2" class="cls-8" cx="26.513" cy="24.265" rx="26.513" ry="24.265" transform="translate(203.128 131.965)"/>
    <path id="Trazado_38" data-name="Trazado 38" class="cls-5" d="M767.368,408.1s1.486-37.631-17.834-25.39c0,0-11.146-34.231-38.393,17l-7.926,7.254s35.668-4.534,68.859,9.521Z" transform="translate(-507.753 -257.455)"/>
    <path id="Trazado_39" data-name="Trazado 39" class="cls-5" d="M766.059,472.426c-1.638-.042-3.676-.094-5.246-1.143a3.606,3.606,0,0,1-1.585-2.753,2.383,2.383,0,0,1,.922-2.037,3.764,3.764,0,0,1,3.308-.436l-1.337-8.943.982-.123,1.572,10.514-.82-.344a3.24,3.24,0,0,0-3.065.025,1.527,1.527,0,0,0-.571,1.313,2.725,2.725,0,0,0,1.18,2.053c1.222.817,2.847.922,4.689.969Z" transform="translate(-536.014 -304.179)"/>
    <rect id="Rectángulo_34" data-name="Rectángulo 34" class="cls-5" width="5.336" height="0.907" transform="translate(215.916 153.705)"/>
    <rect id="Rectángulo_35" data-name="Rectángulo 35" class="cls-5" width="5.336" height="0.907" transform="translate(232.759 153.705)"/>
    <path id="Trazado_40" data-name="Trazado 40" class="cls-3" d="M631.165,580.029a3.094,3.094,0,0,1-3.947-1.323l-17.1-33.725a2.628,2.628,0,0,1,1.445-3.613,3.094,3.094,0,0,1,3.947,1.323l17.1,33.725a2.628,2.628,0,0,1-1.445,3.613Z" transform="translate(-460.637 -350.163)"/>
    <path id="Trazado_42" data-name="Trazado 42" class="cls-3" d="M583.95,502.516c-11.913,5.058-26.051.321-31.578-10.582s-.35-23.842,11.563-28.9,26.051-.321,31.578,10.582c5.511,10.9.339,23.832-11.562,28.9Zm-17.513-34.548c-8.935,3.794-12.817,13.5-8.672,21.675s14.749,11.731,23.683,7.937,12.817-13.5,8.672-21.676-14.748-11.719-23.684-7.936Z" transform="translate(-430.519 -306.375)"/>
  </g>
</svg>
