<svg xmlns="http://www.w3.org/2000/svg" width="27.699" height="27.25" viewBox="0 0 27.699 27.25">
  <defs>
    <style>
      .cls-1 {
        fill: #0A2D74;
      }
    </style>
  </defs>
  <path id="Icon_awesome-save" data-name="Icon awesome-save" class="cls-1" d="M26.829,8.207l-5.186-5.1a2.993,2.993,0,0,0-2.1-.855H2.968A2.944,2.944,0,0,0,0,5.17V26.58A2.944,2.944,0,0,0,2.968,29.5H24.731A2.944,2.944,0,0,0,27.7,26.58V10.272a2.9,2.9,0,0,0-.869-2.064Zm-12.98,17.4a3.893,3.893,0,1,1,3.957-3.893A3.925,3.925,0,0,1,13.849,25.607ZM19.785,7.084V13.2a.736.736,0,0,1-.742.73H4.7a.736.736,0,0,1-.742-.73V6.873a.736.736,0,0,1,.742-.73H18.828a.748.748,0,0,1,.525.214l.215.212a.724.724,0,0,1,.217.516Z" transform="translate(0 -2.25)"/>
</svg>
