<svg xmlns="http://www.w3.org/2000/svg" width="19.942" height="20.075" viewBox="0 0 19.942 20.075">
  <defs>
    <style>
      .cls-1 {
        fill: #0a2d74;
        stroke: #0a2d74;
      }
    </style>
  </defs>
  <path id="Icon_ionic-ios-search" data-name="Icon ionic-ios-search" class="cls-1" d="M23.143,22.187,17.9,16.834a7.636,7.636,0,0,0,1.646-4.743,7.522,7.522,0,1,0-7.521,7.6A7.445,7.445,0,0,0,16.762,18l5.212,5.319a.8.8,0,0,0,.585.253.792.792,0,0,0,.555-.223A.828.828,0,0,0,23.143,22.187ZM12.021,18.06a5.836,5.836,0,0,1-4.176-1.748,6,6,0,0,1,0-8.432,5.861,5.861,0,0,1,8.351,0,6,6,0,0,1,0,8.432A5.836,5.836,0,0,1,12.021,18.06Z" transform="translate(-4 -3.993)"/>
</svg>
