<svg xmlns="http://www.w3.org/2000/svg" width="20" height="20" fill="none" viewBox="0 0 24 24"><path d="M12 15.5A3.5 3.5 0 1 0 12 8.5a3.5 3.5 0 0 0 0 7Zm7.43-2.9c.04-.3.07-.61.07-.93s-.03-.63-.07-.93l2.11-1.65a.5.5 0 0 0 .12-.64l-2-3.46a.5.5 0 0 0-.6-.22l-2.49 1a7.03 7.03 0 0 0-1.6-.93l-.38-2.65A.5.5 0 0 0 13 2h-4a.5.5 0 0 0-.5.42l-.38 2.65c-.59.24-1.14.56-1.6.93l-2.49-1a.5.5 0 0 0-.6.22l-2 3.46a.5.5 0 0 0 .12.64l2.11 1.65c-.04.3-.07.61-.07.93s.03.63.07.93l-2.11 1.65a.5.5 0 0 0-.12.64l2 3.46a.5.5 0 0 0 .6.22l2.49-1c.46.37 1.01.69 1.6.93l.38 2.65A.5.5 0 0 0 9 22h4a.5.5 0 0 0 .5-.42l.38-2.65c.59-.24 1.14-.56 1.6-.93l2.49 1a.5.5 0 0 0 .6-.22l2-3.46a.5.5 0 0 0-.12-.64l-2.11-1.65Z"/></svg>